<svg xmlns="http://www.w3.org/2000/svg" viewBox="0 0 132.97 127.95"><defs><style>.cls-1{fill:#fff;}</style></defs><g id="Layer_2" data-name="Layer 2"><g id="Layer_1-2" data-name="Layer 1"><path class="cls-1" d="M133,128H103.69a20.12,20.12,0,0,1-17.8-10.75L74.18,94.9h-32v17A16.07,16.07,0,0,1,26.11,128H0V78.76A16.07,16.07,0,0,1,16.06,62.69H65.81V73a2.41,2.41,0,0,0,3.91,1.88L93.17,56.31a8,8,0,0,0,0-12.62L69.72,25.14A2.41,2.41,0,0,0,65.81,27v8.68H.33l0,.69c-.1,0-.21,0-.31,0V16.08A16.08,16.08,0,0,1,16.08,0H73.26c35.49,0,55.45,15.24,55.45,48.9,0,17.21-7.77,29.4-18.58,37Z"/></g></g></svg>